<mxfile host="app.diagrams.net" modified="2022-09-14T03:58:57.980Z" agent="5.0 (Windows NT 10.0; Win64; x64) AppleWebKit/537.36 (KHTML, like Gecko) Chrome/104.0.5112.114 Safari/537.36" etag="x1XRppWnMuWkMLRc5eU0" version="20.3.0" type="github">
  <diagram id="aIPe8SwsiHLtHbJoLUiC" name="Page-1">
    <mxGraphModel dx="1102" dy="581" grid="1" gridSize="10" guides="1" tooltips="1" connect="1" arrows="1" fold="1" page="1" pageScale="1" pageWidth="850" pageHeight="1100" math="0" shadow="0">
      <root>
        <mxCell id="0" />
        <mxCell id="1" parent="0" />
        <mxCell id="Jw2Db5T30EA8VQnE4zj4-1" value="EPOL Total Work Force - BEPOLEP012m" style="swimlane;" vertex="1" parent="1">
          <mxGeometry x="40" y="20" width="760" height="1060" as="geometry" />
        </mxCell>
        <mxCell id="Jw2Db5T30EA8VQnE4zj4-12" value="" style="edgeStyle=orthogonalEdgeStyle;rounded=0;orthogonalLoop=1;jettySize=auto;html=1;" edge="1" parent="Jw2Db5T30EA8VQnE4zj4-1" source="Jw2Db5T30EA8VQnE4zj4-2" target="Jw2Db5T30EA8VQnE4zj4-3">
          <mxGeometry relative="1" as="geometry" />
        </mxCell>
        <mxCell id="Jw2Db5T30EA8VQnE4zj4-2" value="Start" style="strokeWidth=2;html=1;shape=mxgraph.flowchart.start_1;whiteSpace=wrap;" vertex="1" parent="Jw2Db5T30EA8VQnE4zj4-1">
          <mxGeometry x="75" y="40" width="100" height="60" as="geometry" />
        </mxCell>
        <mxCell id="Jw2Db5T30EA8VQnE4zj4-13" value="" style="edgeStyle=orthogonalEdgeStyle;rounded=0;orthogonalLoop=1;jettySize=auto;html=1;" edge="1" parent="Jw2Db5T30EA8VQnE4zj4-1" source="Jw2Db5T30EA8VQnE4zj4-3" target="Jw2Db5T30EA8VQnE4zj4-4">
          <mxGeometry relative="1" as="geometry" />
        </mxCell>
        <mxCell id="Jw2Db5T30EA8VQnE4zj4-3" value="Determine Batch Mode" style="shape=process;whiteSpace=wrap;html=1;backgroundOutline=1;" vertex="1" parent="Jw2Db5T30EA8VQnE4zj4-1">
          <mxGeometry x="65" y="140" width="120" height="60" as="geometry" />
        </mxCell>
        <mxCell id="Jw2Db5T30EA8VQnE4zj4-15" value="Yes" style="edgeStyle=orthogonalEdgeStyle;rounded=0;orthogonalLoop=1;jettySize=auto;html=1;exitX=1;exitY=0.5;exitDx=0;exitDy=0;entryX=0;entryY=0.5;entryDx=0;entryDy=0;" edge="1" parent="Jw2Db5T30EA8VQnE4zj4-1" source="Jw2Db5T30EA8VQnE4zj4-4" target="Jw2Db5T30EA8VQnE4zj4-5">
          <mxGeometry relative="1" as="geometry" />
        </mxCell>
        <mxCell id="Jw2Db5T30EA8VQnE4zj4-68" value="No" style="edgeStyle=orthogonalEdgeStyle;rounded=0;orthogonalLoop=1;jettySize=auto;html=1;exitX=0.5;exitY=1;exitDx=0;exitDy=0;entryX=0;entryY=0.5;entryDx=0;entryDy=0;" edge="1" parent="Jw2Db5T30EA8VQnE4zj4-1" source="Jw2Db5T30EA8VQnE4zj4-4" target="Jw2Db5T30EA8VQnE4zj4-17">
          <mxGeometry relative="1" as="geometry">
            <Array as="points">
              <mxPoint x="125" y="340" />
              <mxPoint x="240" y="340" />
              <mxPoint x="240" y="270" />
            </Array>
          </mxGeometry>
        </mxCell>
        <mxCell id="Jw2Db5T30EA8VQnE4zj4-4" value="New Mode" style="rhombus;whiteSpace=wrap;html=1;" vertex="1" parent="Jw2Db5T30EA8VQnE4zj4-1">
          <mxGeometry x="85" y="240" width="80" height="80" as="geometry" />
        </mxCell>
        <mxCell id="Jw2Db5T30EA8VQnE4zj4-16" value="" style="edgeStyle=orthogonalEdgeStyle;rounded=0;orthogonalLoop=1;jettySize=auto;html=1;" edge="1" parent="Jw2Db5T30EA8VQnE4zj4-1" source="Jw2Db5T30EA8VQnE4zj4-5" target="Jw2Db5T30EA8VQnE4zj4-11">
          <mxGeometry relative="1" as="geometry" />
        </mxCell>
        <mxCell id="Jw2Db5T30EA8VQnE4zj4-5" value="Populate temp records" style="shape=process;whiteSpace=wrap;html=1;backgroundOutline=1;" vertex="1" parent="Jw2Db5T30EA8VQnE4zj4-1">
          <mxGeometry x="265" y="40" width="120" height="60" as="geometry" />
        </mxCell>
        <mxCell id="Jw2Db5T30EA8VQnE4zj4-8" value="Get Unique UEN/CompanyCode with Live Pass" style="shape=note;size=15;align=left;spacingLeft=10;html=1;whiteSpace=wrap;" vertex="1" parent="Jw2Db5T30EA8VQnE4zj4-1">
          <mxGeometry x="425" y="40" width="180" height="60" as="geometry" />
        </mxCell>
        <mxCell id="Jw2Db5T30EA8VQnE4zj4-9" value="" style="edgeStyle=none;endArrow=none;dashed=1;html=1;rounded=0;entryX=1;entryY=0.5;entryDx=0;entryDy=0;exitX=0;exitY=0.5;exitDx=0;exitDy=0;exitPerimeter=0;" edge="1" source="Jw2Db5T30EA8VQnE4zj4-8" parent="Jw2Db5T30EA8VQnE4zj4-1" target="Jw2Db5T30EA8VQnE4zj4-5">
          <mxGeometry x="1" relative="1" as="geometry">
            <mxPoint x="145" y="150" as="targetPoint" />
            <mxPoint x="415" y="140" as="sourcePoint" />
          </mxGeometry>
        </mxCell>
        <mxCell id="Jw2Db5T30EA8VQnE4zj4-18" value="" style="edgeStyle=orthogonalEdgeStyle;rounded=0;orthogonalLoop=1;jettySize=auto;html=1;" edge="1" parent="Jw2Db5T30EA8VQnE4zj4-1" source="Jw2Db5T30EA8VQnE4zj4-11" target="Jw2Db5T30EA8VQnE4zj4-17">
          <mxGeometry relative="1" as="geometry" />
        </mxCell>
        <mxCell id="Jw2Db5T30EA8VQnE4zj4-11" value="Insert into&amp;nbsp;&lt;br&gt;TB_EPOL_TWF_TEMP" style="shape=datastore;whiteSpace=wrap;html=1;" vertex="1" parent="Jw2Db5T30EA8VQnE4zj4-1">
          <mxGeometry x="255" y="140" width="140" height="60" as="geometry" />
        </mxCell>
        <mxCell id="Jw2Db5T30EA8VQnE4zj4-23" value="" style="edgeStyle=orthogonalEdgeStyle;rounded=0;orthogonalLoop=1;jettySize=auto;html=1;" edge="1" parent="Jw2Db5T30EA8VQnE4zj4-1" source="Jw2Db5T30EA8VQnE4zj4-17" target="Jw2Db5T30EA8VQnE4zj4-21">
          <mxGeometry relative="1" as="geometry" />
        </mxCell>
        <mxCell id="Jw2Db5T30EA8VQnE4zj4-17" value="Process records" style="shape=process;whiteSpace=wrap;html=1;backgroundOutline=1;" vertex="1" parent="Jw2Db5T30EA8VQnE4zj4-1">
          <mxGeometry x="265" y="240" width="120" height="60" as="geometry" />
        </mxCell>
        <mxCell id="Jw2Db5T30EA8VQnE4zj4-29" value="" style="edgeStyle=orthogonalEdgeStyle;rounded=0;orthogonalLoop=1;jettySize=auto;html=1;" edge="1" parent="Jw2Db5T30EA8VQnE4zj4-1" source="Jw2Db5T30EA8VQnE4zj4-19" target="Jw2Db5T30EA8VQnE4zj4-20">
          <mxGeometry relative="1" as="geometry" />
        </mxCell>
        <mxCell id="Jw2Db5T30EA8VQnE4zj4-34" value="" style="edgeStyle=orthogonalEdgeStyle;rounded=0;orthogonalLoop=1;jettySize=auto;html=1;" edge="1" parent="Jw2Db5T30EA8VQnE4zj4-1" source="Jw2Db5T30EA8VQnE4zj4-19" target="Jw2Db5T30EA8VQnE4zj4-32">
          <mxGeometry relative="1" as="geometry" />
        </mxCell>
        <mxCell id="Jw2Db5T30EA8VQnE4zj4-19" value="Populate EP Data by UEN" style="shape=process;whiteSpace=wrap;html=1;backgroundOutline=1;" vertex="1" parent="Jw2Db5T30EA8VQnE4zj4-1">
          <mxGeometry x="265" y="460" width="120" height="60" as="geometry" />
        </mxCell>
        <mxCell id="Jw2Db5T30EA8VQnE4zj4-37" style="edgeStyle=orthogonalEdgeStyle;rounded=0;orthogonalLoop=1;jettySize=auto;html=1;exitX=1;exitY=0.5;exitDx=0;exitDy=0;entryX=0.5;entryY=1;entryDx=0;entryDy=0;" edge="1" parent="Jw2Db5T30EA8VQnE4zj4-1" source="Jw2Db5T30EA8VQnE4zj4-20" target="Jw2Db5T30EA8VQnE4zj4-32">
          <mxGeometry relative="1" as="geometry" />
        </mxCell>
        <mxCell id="Jw2Db5T30EA8VQnE4zj4-39" style="edgeStyle=orthogonalEdgeStyle;rounded=0;orthogonalLoop=1;jettySize=auto;html=1;exitX=0;exitY=0.5;exitDx=0;exitDy=0;entryX=0.5;entryY=0;entryDx=0;entryDy=0;" edge="1" parent="Jw2Db5T30EA8VQnE4zj4-1" source="Jw2Db5T30EA8VQnE4zj4-20" target="Jw2Db5T30EA8VQnE4zj4-38">
          <mxGeometry relative="1" as="geometry" />
        </mxCell>
        <mxCell id="Jw2Db5T30EA8VQnE4zj4-20" value="Populate WP Data" style="shape=process;whiteSpace=wrap;html=1;backgroundOutline=1;" vertex="1" parent="Jw2Db5T30EA8VQnE4zj4-1">
          <mxGeometry x="265" y="570" width="120" height="60" as="geometry" />
        </mxCell>
        <mxCell id="Jw2Db5T30EA8VQnE4zj4-26" value="UEN" style="edgeStyle=orthogonalEdgeStyle;rounded=0;orthogonalLoop=1;jettySize=auto;html=1;" edge="1" parent="Jw2Db5T30EA8VQnE4zj4-1" source="Jw2Db5T30EA8VQnE4zj4-21" target="Jw2Db5T30EA8VQnE4zj4-19">
          <mxGeometry relative="1" as="geometry" />
        </mxCell>
        <mxCell id="Jw2Db5T30EA8VQnE4zj4-33" value="Company Code" style="edgeStyle=orthogonalEdgeStyle;rounded=0;orthogonalLoop=1;jettySize=auto;html=1;" edge="1" parent="Jw2Db5T30EA8VQnE4zj4-1" source="Jw2Db5T30EA8VQnE4zj4-21" target="Jw2Db5T30EA8VQnE4zj4-22">
          <mxGeometry relative="1" as="geometry" />
        </mxCell>
        <mxCell id="Jw2Db5T30EA8VQnE4zj4-21" value="UEN/ Company Code" style="rhombus;whiteSpace=wrap;html=1;" vertex="1" parent="Jw2Db5T30EA8VQnE4zj4-1">
          <mxGeometry x="285" y="340" width="80" height="80" as="geometry" />
        </mxCell>
        <mxCell id="Jw2Db5T30EA8VQnE4zj4-35" style="edgeStyle=orthogonalEdgeStyle;rounded=0;orthogonalLoop=1;jettySize=auto;html=1;exitX=1;exitY=0.5;exitDx=0;exitDy=0;entryX=0.5;entryY=1;entryDx=0;entryDy=0;" edge="1" parent="Jw2Db5T30EA8VQnE4zj4-1" source="Jw2Db5T30EA8VQnE4zj4-22" target="Jw2Db5T30EA8VQnE4zj4-20">
          <mxGeometry relative="1" as="geometry">
            <Array as="points">
              <mxPoint x="635" y="380" />
              <mxPoint x="635" y="660" />
              <mxPoint x="325" y="660" />
            </Array>
          </mxGeometry>
        </mxCell>
        <mxCell id="Jw2Db5T30EA8VQnE4zj4-36" value="" style="edgeStyle=orthogonalEdgeStyle;rounded=0;orthogonalLoop=1;jettySize=auto;html=1;" edge="1" parent="Jw2Db5T30EA8VQnE4zj4-1" source="Jw2Db5T30EA8VQnE4zj4-22" target="Jw2Db5T30EA8VQnE4zj4-32">
          <mxGeometry relative="1" as="geometry" />
        </mxCell>
        <mxCell id="Jw2Db5T30EA8VQnE4zj4-22" value="Populate EP Data by Company Code" style="shape=process;whiteSpace=wrap;html=1;backgroundOutline=1;" vertex="1" parent="Jw2Db5T30EA8VQnE4zj4-1">
          <mxGeometry x="455" y="350" width="120" height="60" as="geometry" />
        </mxCell>
        <mxCell id="Jw2Db5T30EA8VQnE4zj4-32" value="Insert into&amp;nbsp;&lt;br&gt;TB_EPOL_TWF_DETAIL" style="shape=datastore;whiteSpace=wrap;html=1;" vertex="1" parent="Jw2Db5T30EA8VQnE4zj4-1">
          <mxGeometry x="445" y="460" width="140" height="60" as="geometry" />
        </mxCell>
        <mxCell id="Jw2Db5T30EA8VQnE4zj4-41" value="" style="edgeStyle=orthogonalEdgeStyle;rounded=0;orthogonalLoop=1;jettySize=auto;html=1;" edge="1" parent="Jw2Db5T30EA8VQnE4zj4-1" source="Jw2Db5T30EA8VQnE4zj4-38" target="Jw2Db5T30EA8VQnE4zj4-40">
          <mxGeometry relative="1" as="geometry" />
        </mxCell>
        <mxCell id="Jw2Db5T30EA8VQnE4zj4-38" value="Populate Summary Data" style="shape=process;whiteSpace=wrap;html=1;backgroundOutline=1;" vertex="1" parent="Jw2Db5T30EA8VQnE4zj4-1">
          <mxGeometry x="65" y="680" width="120" height="60" as="geometry" />
        </mxCell>
        <mxCell id="Jw2Db5T30EA8VQnE4zj4-47" value="" style="edgeStyle=orthogonalEdgeStyle;rounded=0;orthogonalLoop=1;jettySize=auto;html=1;" edge="1" parent="Jw2Db5T30EA8VQnE4zj4-1" source="Jw2Db5T30EA8VQnE4zj4-40" target="Jw2Db5T30EA8VQnE4zj4-46">
          <mxGeometry relative="1" as="geometry" />
        </mxCell>
        <mxCell id="Jw2Db5T30EA8VQnE4zj4-40" value="Insert into&amp;nbsp;&lt;br&gt;TB_EPOL_TWF_SUMMARY" style="shape=datastore;whiteSpace=wrap;html=1;" vertex="1" parent="Jw2Db5T30EA8VQnE4zj4-1">
          <mxGeometry x="55" y="780" width="140" height="60" as="geometry" />
        </mxCell>
        <mxCell id="Jw2Db5T30EA8VQnE4zj4-42" value="Get count for all different pass" style="shape=note;size=15;align=left;spacingLeft=10;html=1;whiteSpace=wrap;" vertex="1" parent="Jw2Db5T30EA8VQnE4zj4-1">
          <mxGeometry x="545" y="250" width="180" height="60" as="geometry" />
        </mxCell>
        <mxCell id="Jw2Db5T30EA8VQnE4zj4-43" value="" style="edgeStyle=none;endArrow=none;dashed=1;html=1;rounded=0;entryX=0.5;entryY=0;entryDx=0;entryDy=0;exitX=0;exitY=0.5;exitDx=0;exitDy=0;exitPerimeter=0;" edge="1" parent="Jw2Db5T30EA8VQnE4zj4-1" source="Jw2Db5T30EA8VQnE4zj4-42" target="Jw2Db5T30EA8VQnE4zj4-22">
          <mxGeometry x="1" relative="1" as="geometry">
            <mxPoint x="395" y="80" as="targetPoint" />
            <mxPoint x="435" y="80" as="sourcePoint" />
          </mxGeometry>
        </mxCell>
        <mxCell id="Jw2Db5T30EA8VQnE4zj4-44" value="Get Total Count from TB_EPOL_TWF_DETAIL" style="shape=note;size=15;align=left;spacingLeft=10;html=1;whiteSpace=wrap;" vertex="1" parent="Jw2Db5T30EA8VQnE4zj4-1">
          <mxGeometry x="230" y="680" width="180" height="60" as="geometry" />
        </mxCell>
        <mxCell id="Jw2Db5T30EA8VQnE4zj4-45" value="" style="edgeStyle=none;endArrow=none;dashed=1;html=1;rounded=0;entryX=1;entryY=0.5;entryDx=0;entryDy=0;" edge="1" parent="Jw2Db5T30EA8VQnE4zj4-1" source="Jw2Db5T30EA8VQnE4zj4-44" target="Jw2Db5T30EA8VQnE4zj4-38">
          <mxGeometry x="1" relative="1" as="geometry">
            <mxPoint x="395" y="90" as="targetPoint" />
            <mxPoint x="435" y="90" as="sourcePoint" />
          </mxGeometry>
        </mxCell>
        <mxCell id="Jw2Db5T30EA8VQnE4zj4-51" value="" style="edgeStyle=orthogonalEdgeStyle;rounded=0;orthogonalLoop=1;jettySize=auto;html=1;" edge="1" parent="Jw2Db5T30EA8VQnE4zj4-1" source="Jw2Db5T30EA8VQnE4zj4-46" target="Jw2Db5T30EA8VQnE4zj4-48">
          <mxGeometry relative="1" as="geometry" />
        </mxCell>
        <mxCell id="Jw2Db5T30EA8VQnE4zj4-46" value="Update TB_EPOL_TWF_TEMP" style="shape=datastore;whiteSpace=wrap;html=1;" vertex="1" parent="Jw2Db5T30EA8VQnE4zj4-1">
          <mxGeometry x="255" y="780" width="140" height="60" as="geometry" />
        </mxCell>
        <mxCell id="Jw2Db5T30EA8VQnE4zj4-61" value="" style="edgeStyle=orthogonalEdgeStyle;rounded=0;orthogonalLoop=1;jettySize=auto;html=1;" edge="1" parent="Jw2Db5T30EA8VQnE4zj4-1" source="Jw2Db5T30EA8VQnE4zj4-48" target="Jw2Db5T30EA8VQnE4zj4-52">
          <mxGeometry relative="1" as="geometry" />
        </mxCell>
        <mxCell id="Jw2Db5T30EA8VQnE4zj4-48" value="Get Unprocessed count" style="shape=process;whiteSpace=wrap;html=1;backgroundOutline=1;" vertex="1" parent="Jw2Db5T30EA8VQnE4zj4-1">
          <mxGeometry x="265" y="880" width="120" height="60" as="geometry" />
        </mxCell>
        <mxCell id="Jw2Db5T30EA8VQnE4zj4-49" value="Get count for all different pass" style="shape=note;size=15;align=left;spacingLeft=10;html=1;whiteSpace=wrap;" vertex="1" parent="Jw2Db5T30EA8VQnE4zj4-1">
          <mxGeometry x="50" y="420" width="180" height="60" as="geometry" />
        </mxCell>
        <mxCell id="Jw2Db5T30EA8VQnE4zj4-50" value="" style="edgeStyle=none;endArrow=none;dashed=1;html=1;rounded=0;entryX=0;entryY=0;entryDx=180;entryDy=37.5;entryPerimeter=0;exitX=0;exitY=0.5;exitDx=0;exitDy=0;" edge="1" parent="Jw2Db5T30EA8VQnE4zj4-1" source="Jw2Db5T30EA8VQnE4zj4-19" target="Jw2Db5T30EA8VQnE4zj4-49">
          <mxGeometry x="1" relative="1" as="geometry">
            <mxPoint x="195" y="720" as="targetPoint" />
            <mxPoint x="240" y="720" as="sourcePoint" />
          </mxGeometry>
        </mxCell>
        <mxCell id="Jw2Db5T30EA8VQnE4zj4-62" value="No" style="edgeStyle=orthogonalEdgeStyle;rounded=0;orthogonalLoop=1;jettySize=auto;html=1;" edge="1" parent="Jw2Db5T30EA8VQnE4zj4-1" source="Jw2Db5T30EA8VQnE4zj4-52" target="Jw2Db5T30EA8VQnE4zj4-54">
          <mxGeometry relative="1" as="geometry" />
        </mxCell>
        <mxCell id="Jw2Db5T30EA8VQnE4zj4-67" value="Yes" style="edgeStyle=orthogonalEdgeStyle;rounded=0;orthogonalLoop=1;jettySize=auto;html=1;" edge="1" parent="Jw2Db5T30EA8VQnE4zj4-1" source="Jw2Db5T30EA8VQnE4zj4-52" target="Jw2Db5T30EA8VQnE4zj4-58">
          <mxGeometry relative="1" as="geometry" />
        </mxCell>
        <mxCell id="Jw2Db5T30EA8VQnE4zj4-52" value="Count &amp;gt; 0" style="rhombus;whiteSpace=wrap;html=1;" vertex="1" parent="Jw2Db5T30EA8VQnE4zj4-1">
          <mxGeometry x="445" y="870" width="80" height="80" as="geometry" />
        </mxCell>
        <mxCell id="Jw2Db5T30EA8VQnE4zj4-64" style="edgeStyle=orthogonalEdgeStyle;rounded=0;orthogonalLoop=1;jettySize=auto;html=1;exitX=0;exitY=0.5;exitDx=0;exitDy=0;entryX=0.5;entryY=1;entryDx=0;entryDy=0;" edge="1" parent="Jw2Db5T30EA8VQnE4zj4-1" source="Jw2Db5T30EA8VQnE4zj4-54" target="Jw2Db5T30EA8VQnE4zj4-63">
          <mxGeometry relative="1" as="geometry" />
        </mxCell>
        <mxCell id="Jw2Db5T30EA8VQnE4zj4-65" value="" style="edgeStyle=orthogonalEdgeStyle;rounded=0;orthogonalLoop=1;jettySize=auto;html=1;" edge="1" parent="Jw2Db5T30EA8VQnE4zj4-1" source="Jw2Db5T30EA8VQnE4zj4-54" target="Jw2Db5T30EA8VQnE4zj4-56">
          <mxGeometry relative="1" as="geometry" />
        </mxCell>
        <mxCell id="Jw2Db5T30EA8VQnE4zj4-54" value="Update effectiveInd" style="shape=process;whiteSpace=wrap;html=1;backgroundOutline=1;" vertex="1" parent="Jw2Db5T30EA8VQnE4zj4-1">
          <mxGeometry x="425" y="980" width="120" height="60" as="geometry" />
        </mxCell>
        <mxCell id="Jw2Db5T30EA8VQnE4zj4-66" value="" style="edgeStyle=orthogonalEdgeStyle;rounded=0;orthogonalLoop=1;jettySize=auto;html=1;" edge="1" parent="Jw2Db5T30EA8VQnE4zj4-1" source="Jw2Db5T30EA8VQnE4zj4-56" target="Jw2Db5T30EA8VQnE4zj4-58">
          <mxGeometry relative="1" as="geometry" />
        </mxCell>
        <mxCell id="Jw2Db5T30EA8VQnE4zj4-56" value="Purge&amp;nbsp;&lt;br&gt;TB_EPOL_TWF_TEMP" style="shape=process;whiteSpace=wrap;html=1;backgroundOutline=1;" vertex="1" parent="Jw2Db5T30EA8VQnE4zj4-1">
          <mxGeometry x="605" y="980" width="120" height="60" as="geometry" />
        </mxCell>
        <mxCell id="Jw2Db5T30EA8VQnE4zj4-58" value="End" style="strokeWidth=2;html=1;shape=mxgraph.flowchart.start_1;whiteSpace=wrap;" vertex="1" parent="Jw2Db5T30EA8VQnE4zj4-1">
          <mxGeometry x="615" y="880" width="100" height="60" as="geometry" />
        </mxCell>
        <mxCell id="Jw2Db5T30EA8VQnE4zj4-63" value="Update TB_EPOL_TWF_SUMMARY" style="shape=datastore;whiteSpace=wrap;html=1;" vertex="1" parent="Jw2Db5T30EA8VQnE4zj4-1">
          <mxGeometry x="55" y="880" width="140" height="60" as="geometry" />
        </mxCell>
        <mxCell id="Jw2Db5T30EA8VQnE4zj4-69" value="Get count by calling&amp;nbsp;EP_GET_FCF_TWF" style="shape=note;size=15;align=left;spacingLeft=10;html=1;whiteSpace=wrap;" vertex="1" parent="Jw2Db5T30EA8VQnE4zj4-1">
          <mxGeometry x="50" y="520" width="180" height="60" as="geometry" />
        </mxCell>
        <mxCell id="Jw2Db5T30EA8VQnE4zj4-70" value="" style="edgeStyle=none;endArrow=none;dashed=1;html=1;rounded=0;entryX=0;entryY=0;entryDx=180;entryDy=37.5;entryPerimeter=0;exitX=0;exitY=0.25;exitDx=0;exitDy=0;" edge="1" parent="Jw2Db5T30EA8VQnE4zj4-1" source="Jw2Db5T30EA8VQnE4zj4-20" target="Jw2Db5T30EA8VQnE4zj4-69">
          <mxGeometry x="1" relative="1" as="geometry">
            <mxPoint x="235" y="477.5" as="targetPoint" />
            <mxPoint x="260" y="580" as="sourcePoint" />
          </mxGeometry>
        </mxCell>
      </root>
    </mxGraphModel>
  </diagram>
</mxfile>
